# AST/ASF file generated using VICON BodyLanguage
# -----------------------------------------------
:version 1.10
:name VICON
:units
  mass 1.0
  length 0.45
  angle deg
:documentation
   .ast/.asf automatically generated from VICON data using
   VICON BodyBuilder and BodyLanguage model FoxedUp or BRILLIANT.MOD
:root
   order TX TY TZ RX RY RZ
   axis XYZ
   position 0 0 0  
   orientation 0 0 0 
:bonedata
  begin
     id 1 
     name lhipjoint
     direction 0.547975 -0.797114 0.253638 
     length 2.36201 
     axis 0 0 0  XYZ
  end
  begin
     id 2 
     name lfemur
     direction 0.34202 -0.939693 0  
     length 7.69075  
     axis 0 0 20  XYZ
    dof rx ry rz
    limits (-160.0 20.0)
           (-70.0 70.0)
           (-60.0 70.0)
  end
  begin
     id 3 
     name ltibia
     direction 0.34202 -0.939693 0   
     length 7.91399   
     axis 0 0 20   XYZ
    dof rx
    limits (-10.0 170.0)
  end
  begin
     id 4 
     name lfoot
     direction 0.0705293 -0.193778 0.978507   
     length 2.13618   
     axis -90 7.62852e-016 20   XYZ
    dof rx rz
    limits (-45.0 90.0)
           (-70.0 20.0)
  end
  begin
     id 5 
     name ltoes
     direction 1.53592e-011 -4.21925e-011 1   
     length 1.07518   
     axis -90 7.62852e-016 20   XYZ
    dof rx
    limits (-90.0 20.0)
  end
  begin
     id 6 
     name rhipjoint
     direction -0.57 -0.782963 0.249136   
     length 2.4047  
     axis 0 0 0  XYZ 
  end
  begin
     id 7 
     name rfemur
     direction -0.34202 -0.939693 0   
     length 7.51486   
     axis 0 0 -20   XYZ
    dof rx ry rz
    limits (-160.0 20.0)
           (-70.0 70.0)
           (-70.0 60.0)
  end
  begin
     id 8 
     name rtibia
     direction -0.34202 -0.939693 0   
     length 8.08317   
     axis 0 0 -20   XYZ
    dof rx
    limits (-10.0 170.0)
 end
 begin
     id 9 
     name rfoot
     direction -0.104954 -0.281256 0.953876   
     length 2.30343  
     axis -90 -7.62852e-016 -20   XYZ
    dof rx rz
    limits (-45.0 90.0)
           (-20.0 70.0)
  end
  begin
     id 10 
     name rtoes
     direction -1.53556e-011 -4.21922e-011 1   
     length 1.14803   
     axis -90 -7.62852e-016 -20   XYZ
    dof rx
    limits (-90.0 20.0)
  end
  begin
     id 11 
     name lowerback
     direction -0.0152855 0.99353 -0.11254   
     length 2.05311   
     axis 0 0 0   XYZ
    dof rx ry rz
    limits (-20.0 45.0)
           (-30.0 30.0)
           (-30.0 30.0)
  end
  begin
     id 12 
     name upperback
     direction -0.00157509 0.999443 -0.033332   
     length 2.06353   
     axis 0 0 0   XYZ
    dof rx ry rz
    limits (-20.0 45.0)
           (-30.0 30.0)
           (-30.0 30.0)
  end
  begin
     id 13 
     name thorax
     direction 0.00577788 0.999804 0.0189484   
     length 2.08472   
     axis 0 0 0   XYZ
    dof rx ry rz
    limits (-20.0 45.0)
           (-30.0 30.0)
           (-30.0 30.0)
  end
  begin
     id 14 
     name lowerneck
     direction -1.09301e-005 0.994719 0.10264   
     length 1.76249   
     axis 0 0 0   XYZ
    dof rx ry rz
    limits (-20.0 45.0)
           (-30.0 30.0)
           (-30.0 30.0)
  end
  begin
     id 15 
     name upperneck
     direction 0.0495018 0.988526 -0.142706   
     length 1.77897   
     axis 0 0 0   XYZ
    dof rx ry rz
    limits (-20.0 45.0)
           (-30.0 30.0)
           (-30.0 30.0)
  end
  begin
     id 16
     name head
     direction 0.0142736 0.998114 -0.0597101  
     length 1.78934  
     axis 0 0 0   XYZ
    dof rx ry rz
    limits (-20.0 45.0)
           (-30.0 30.0)
           (-30.0 30.0)
  end
  begin
     id 17 
     name lclavicle
     direction 0.918111 0.396107 -0.0130883  
     length 3.37276  
     axis 0 0 0   XYZ
    dof ry rz
    limits (-20.0 10.0)
           (0.0 20.0)
  end
  begin
     id 18 
     name lhumerus
     direction 1 -4.48975e-011 -3.26108e-027   
     length 5.34298   
     axis 180 -30 -90   XYZ
    dof rx ry rz
    limits (-60.0 90.0)
           (-90.0 90.0)
           (-90.0 90.0)
  end
  begin
     id 19
     name lradius
     direction 1 -4.48964e-011 -8.84413e-028   
     length 3.67262   
     axis 180 -30 -90   XYZ
    dof rx
    limits (-10.0 170.0)
  end
  begin
     id 20
     name lwrist
     direction 1 -4.48991e-011 -1.24264e-027   
     length 1.83631   
     axis -2.17013e-015 90 90   XYZ
    dof ry
    limits (-180.0 0.0)
 end
  begin
     id 21 
     name lhand
     direction 1 -4.48855e-011 -2.48528e-027   
     length 0.599298   
     axis 1.58582e-015 90 90   XYZ
    dof rx rz
    limits (-90.0 90.0)
           (-45.0 45.0)
  end
  begin
     id 22 
     name lfingers
     direction 1 -4.48811e-011 -4.97056e-027   
     length 0.48317   
     axis 3.17164e-015 90 90   XYZ
    dof rx
    limits (0.0 90.0)
  end
  begin
     id 23
     name lthumb
     direction 0.707107 -6.34882e-011 0.707107   
     length 0.693738   
     axis -90 45 2.85299e-015   XYZ
    dof rx rz
    limits (-45.0 45.0)
           (-45.0 45.0)
  end
  begin
     id 24 
     name rclavicle
     direction -0.920511 0.384752 -0.0680135   
     length 3.43787  
     axis 0 0 0   XYZ 
    dof ry rz
    limits (-10.0 20.0)
           (-20.0 0.0)
  end
  begin
     id 25 
     name rhumerus
     direction -0.999976 -0.00330524 0.00603274  
     length 5.5498   
     axis 180 30 90   XYZ
    dof rx ry rz
    limits (-90.0 60.0)
           (-90.0 90.0)
           (-90.0 90.0)
  end
  begin
     id 26 
     name rradius
     direction -1 -4.48967e-011 8.62438e-027   
     length 3.69401   
     axis 180 30 90   XYZ
    dof rx
    limits (-10.0 170.0)
  end
  begin
     id 27 
     name rwrist
     direction -1 -4.4897e-011 9.54866e-027   
     length 1.84701   
     axis -7.69462e-015 -90 -90   XYZ
    dof ry
    limits (-180.0 0.0)
  end
  begin
     id 28
     name rhand
     direction -1 -4.48982e-011 1.90973e-026   
     length 0.638113   
     axis -1.21857e-014 -90 -90   XYZ
    dof rx rz
    limits (-90.0 90.0)
           (-45.0 45.0)
  end
  begin
     id 29
     name rfingers
     direction -1 -4.48936e-011 3.81946e-026   
     length 0.514463   
     axis -2.43714e-014 -90 -90   XYZ
    dof rx
    limits (0.0 90.0)
  end
  begin
     id 30
     name rthumb
     direction -0.707107 -6.34942e-011 0.707107   
     length 0.738669   
     axis -90 -45 -2.85299e-015   XYZ
    dof rx rz
    limits (-45.0 45.0)
           (-45.0 45.0)
  end
:hierarchy
  begin
    root lhipjoint rhipjoint lowerback
    lhipjoint lfemur
    lfemur ltibia
    ltibia lfoot
    lfoot ltoes
    rhipjoint rfemur
    rfemur rtibia
    rtibia rfoot
    rfoot rtoes
    lowerback upperback
    upperback thorax
    thorax lowerneck lclavicle rclavicle
    lowerneck upperneck
    upperneck head
    lclavicle lhumerus
    lhumerus lradius
    lradius lwrist
    lwrist lhand lthumb
    lhand lfingers
    rclavicle rhumerus
    rhumerus rradius
    rradius rwrist
    rwrist rhand rthumb
    rhand rfingers
  end

#!OML:ASF F:\twosubjects\two\Thursday\Session 1\Rory.ASF
:FULLY-SPECIFIED
:DEGREES
1
root 20.4052 17.8396 -13.5102 2.47253 -20.8574 0.294385
lowerback 2.34143 -1.5243 -5.30118
upperback 1.42429 -2.13838 -1.36653
thorax 0.294297 -1.10063 1.60454
lowerneck -8.18655 -3.7229 -6.95872
upperneck 24.8989 -4.9698 3.34051
head 9.44181 -2.67934 1.7969
rclavicle -4.91992e-014 -3.97569e-015
rhumerus -38.6309 27.9384 -103.844
rradius 119.626
rwrist -69.7817
rhand -26.522 22.0251
rfingers 7.12502
rthumb 0.0416069 -7.95465
lclavicle -4.91992e-014 -3.97569e-015
lhumerus -26.4789 -29.6987 97.8724
lradius 123.686
lwrist -14.6155
lhand -28.7033 28.7108
lfingers 7.12502
lthumb -2.06521 58.6806
rfemur -6.91402 2.75738 24.3104
rtibia 32.8988
rfoot -23.1115 -8.88959
rtoes 4.34844
lfemur -28.3425 10.1193 -13.4187
ltibia 45.8755
lfoot -13.2896 4.51908
ltoes -0.65201
2
root 20.3846 17.8659 -13.3343 2.46444 -21.2264 0.729906
lowerback -1.11994 -1.05731 -6.3313
upperback 3.39593 -1.175 -1.14456
thorax 4.25608 -0.779335 2.30099
lowerneck -9.54153 -3.36962 -6.32587
upperneck 24.8522 -4.23867 2.42757
head 9.60521 -2.35067 1.43528
rclavicle -4.14466e-014 5.56597e-015
rhumerus -35.88 30.6727 -102.7
rradius 120.221
rwrist -71.3102
rhand -27.3561 22.3898
rfingers 7.12502
rthumb -0.764025 -7.5886
lclavicle -4.14466e-014 5.56597e-015
lhumerus -23.648 -29.3728 96.8158
lradius 124.46
lwrist -12.678
lhand -28.7201 28.8174
lfingers 7.12502
lthumb -2.08141 58.787
rfemur -6.12565 2.25506 23.6985
rtibia 32.1913
rfoot -23.0329 -8.90248
rtoes -2.23111
lfemur -28.5254 9.8869 -13.5759
ltibia 43.1594
lfoot -12.5081 5.75298
ltoes -0.248053
3
root 20.3659 17.8826 -13.1429 2.49954 -21.8302 0.71326
lowerback -2.98251 0.012759 -6.51257
upperback 4.60498 0.468789 -1.20252
thorax 6.45798 -0.0604082 2.42855
lowerneck -11.5638 -3.16093 -4.292
upperneck 26.057 -3.88948 1.00563
head 10.3316 -2.13917 0.601861
rclavicle -4.57205e-015 1.82882e-014
rhumerus -34.0716 31.5804 -102.114
rradius 120.646
rwrist -72.1329
rhand -27.581 21.9564
rfingers 7.12502
rthumb -0.98121 -8.02112
lclavicle -4.57205e-015 1.82882e-014
lhumerus -22.35 -30.8033 96.3029
lradius 125.31
lwrist -11.9739
lhand -28.4022 30.5017
lfingers 7.12502
lthumb -1.77433 60.4741
rfemur -4.87184 2.13639 23.4984
rtibia 30.9462
rfoot -22.7661 -8.5923
rtoes -2.2202
lfemur -28.5694 9.5922 -13.1684
ltibia 40.8104
lfoot -12.1546 6.09675
ltoes 2.27368
4
root 20.3442 17.9029 -12.9477 2.61393 -22.5294 0.22228
lowerback -3.36654 0.912749 -5.95929
upperback 4.79984 1.68168 -1.28724
thorax 6.78874 0.553451 2.14039
lowerneck -12.7799 -2.39758 -2.04137
upperneck 27.7046 -2.84103 -0.675825
head 11.082 -1.63414 -0.279034
rclavicle 7.87187e-014 -2.46493e-014
rhumerus -34.0185 33.0811 -102.99
rradius 120.799
rwrist -72.5616
rhand -27.3433 21.7001
rfingers 7.12502
rthumb -0.751649 -8.27832
lclavicle 7.87187e-014 -2.46493e-014
lhumerus -23.2264 -31.1257 96.379
lradius 126.494
lwrist -10.8619
lhand -27.6391 30.6846
lfingers 7.12502
lthumb -1.03736 60.6619
rfemur -3.52831 2.46429 23.8344
rtibia 29.7978
rfoot -22.315 -8.53974
rtoes -3.45425
lfemur -28.461 9.07549 -12.1589
ltibia 38.3179
lfoot -10.8878 7.10559
ltoes -0.770338
5
root 20.3271 17.9216 -12.7624 2.74217 -23.1762 -0.186169
lowerback -2.89207 0.515922 -5.22555
upperback 3.74911 1.01331 -0.935347
thorax 5.45002 0.305469 2.03099
lowerneck -10.8467 -0.503177 -2.73753
upperneck 28.6269 0.162171 -1.43209
head 11.0293 -0.457466 -0.0399718
rclavicle 3.94588e-014 -1.43125e-014
rhumerus -37.4119 38.1406 -106.373
rradius 120.826
rwrist -73.3378
rhand -27.4169 21.5235
rfingers 7.12502
rthumb -0.822783 -8.45464
lclavicle 3.94588e-014 -1.43125e-014
lhumerus -27.2127 -27.1229 97.631
lradius 128.115
lwrist -10.1644
lhand -27.5558 30.8077
lfingers 7.12502
lthumb -0.9569 60.7853
rfemur -2.25769 2.97836 24.1547
rtibia 28.5647
rfoot -21.3517 -9.05344
rtoes -6.64311
lfemur -28.4757 8.30402 -11.1647
ltibia 35.8641
lfoot -9.88699 8.80994
ltoes 2.99533
6
root 20.3152 17.9376 -12.5772 2.79964 -23.7989 -0.247527
lowerback -1.37522 1.54706 -4.49076
upperback 2.8955 2.25479 -1.70431
thorax 3.65519 1.01499 0.855373
lowerneck -11.2241 0.204447 -0.342631
upperneck 30.2996 0.856926 -2.09211
head 11.7556 0.016599 -0.620602
rclavicle 1.05753e-013 0
rhumerus -38.5043 38.6897 -109.196
rradius 120.662
rwrist -73.6879
rhand -27.6908 20.7764
rfingers 7.12502
rthumb -1.08728 -9.20054
lclavicle 1.05753e-013 0
lhumerus -29.9766 -27.5747 97.6789
lradius 129.251
lwrist -8.8205
lhand -27.8341 30.8752
lfingers 7.12502
lthumb -1.22565 60.8514
rfemur -1.11533 3.35875 24.0586
rtibia 27.3953
rfoot -20.7326 -9.11437
rtoes -7.7867
lfemur -28.4523 7.23351 -10.4705
ltibia 33.4164
lfoot -8.39839 10.5979
ltoes 0.636692
7
root 20.3014 17.9567 -12.3919 2.8718 -24.4809 -0.32185
lowerback 0.180187 1.61589 -3.83756
upperback 1.34347 2.18607 -1.85599
thorax 1.20703 1.05752 0.262493
lowerneck -9.10298 1.64295 -0.35091
upperneck 31.307 2.94474 -2.20695
head 11.7476 0.929644 -0.410053
rclavicle -4.04527e-014 1.19271e-014
rhumerus -42.549 41.6499 -114.086
rradius 120.36
rwrist -74.0521
rhand -27.9961 20.179
rfingers 7.12502
rthumb -1.38211 -9.79626
lclavicle -4.04527e-014 1.19271e-014
lhumerus -34.0478 -24.1428 97.9294
lradius 130.964
lwrist -5.16751
lhand -26.5701 29.8606
lfingers 7.12502
lthumb -0.00489902 59.8403
rfemur -0.0975779 3.54703 23.8985
rtibia 26.4747
rfoot -20.7605 -8.8741
rtoes -8.06592
lfemur -28.308 6.25256 -9.76966
ltibia 30.9565
lfoot -7.09146 12.7914
ltoes -2.20854
8
root 20.2931 17.9607 -12.2124 2.98601 -25.2239 -0.542913
lowerback 1.40701 2.63096 -2.68566
upperback 0.620827 3.4542 -2.7105
thorax -0.142535 1.72098 -1.32759
lowerneck -9.00886 2.24881 1.46737
upperneck 32.3914 3.4739 -2.20562
head 12.2087 1.3726 -0.66362
rclavicle 4.27387e-015 -3.33958e-014
rhumerus -43.1175 42.2697 -116.817
rradius 119.743
rwrist -74.051
rhand -28.6601 20.2054
rfingers 7.12502
rthumb -2.02347 -9.7647
lclavicle 4.27387e-015 -3.33958e-014
lhumerus -36.6533 -24.7972 97.5001
lradius 131.829
lwrist -5.70651
lhand -26.47 31.3402
lfingers 7.12502
lthumb 0.0917562 61.3199
rfemur 0.819447 3.66266 23.8708
rtibia 25.7015
rfoot -20.5421 -8.97451
rtoes -11.5056
lfemur -28.0543 5.48426 -8.96217
ltibia 28.564
lfoot -6.62483 14.6326
ltoes -4.47949
9
root 20.2897 17.95 -12.0254 2.93887 -25.9521 -0.429467
lowerback 1.80653 3.38315 -2.18802
upperback 0.312197 4.43198 -3.17797
thorax -0.604331 2.21293 -2.13607
lowerneck -8.65125 3.17604 3.05507
upperneck 32.8473 4.78515 -3.03742
head 12.4282 2.05113 -1.09141
rclavicle 4.76089e-014 -1.90833e-014
rhumerus -43.3993 43.9274 -118.943
rradius 119.113
rwrist -74.3698
rhand -29.7739 20.6049
rfingers 7.12502
rthumb -3.09909 -9.35232
lclavicle 4.76089e-014 -1.90833e-014
lhumerus -38.7546 -24.2974 97.1448
lradius 132.598
lwrist -5.78826
lhand -26.5327 32.443
lfingers 7.12502
lthumb 0.0312051 62.4227
rfemur 1.76851 3.66304 23.4475
rtibia 24.9709
rfoot -20.0755 -8.94774
rtoes -14.352
lfemur -27.8094 4.90465 -8.60722
ltibia 26.3672
lfoot -6.83417 15.3445
ltoes -6.71816
